{
	"asset":{
		"generator":"Khronos glTF Blender I/O v4.1.63",
		"version":"2.0"
	},
	"extensionsUsed":[
		"KHR_materials_specular"
	],
	"scene":0,
	"scenes":[
		{
			"name":"Scene",
			"nodes":[
				0
			]
		}
	],
	"nodes":[
		{
			"mesh":0,
			"name":"human_med",
			"rotation":[
				0.7071068286895752,
				0,
				0,
				0.7071068286895752
			]
		}
	],
	"materials":[
		{
			"doubleSided":true,
			"extensions":{
				"KHR_materials_specular":{
					"specularFactor":0.6000000238418579
				}
			},
			"name":"DefaultSkin.005",
			"pbrMetallicRoughness":{
				"baseColorFactor":[
					0.5903000235557556,
					0.4399999976158142,
					0.33799999952316284,
					1
				],
				"metallicFactor":0
			}
		},
		{
			"alphaMode":"BLEND",
			"doubleSided":true,
			"extensions":{
				"KHR_materials_specular":{
					"specularColorFactor":[
						2.0,
						2.0,
						2.0
					]
				}
			},
			"name":"Eye_brown.005",
			"pbrMetallicRoughness":{
				"baseColorFactor":[
					1,
					1,
					1,
					0
				],
				"baseColorTexture":{
					"index":0
				},
				"metallicFactor":0
			}
		}
	],
	"meshes":[
		{
			"extras":{
				"targetNames":[
					"key1",
					"key2",
					"key3"
				]
			},
			"name":"human_med",
			"primitives":[
				{
					"attributes":{
						"POSITION":0,
						"NORMAL":1,
						"TEXCOORD_0":2
					},
					"indices":3,
					"material":0,
					"targets":[
						{
							"POSITION":4,
							"NORMAL":5
						},
						{
							"POSITION":6,
							"NORMAL":7
						},
						{
							"POSITION":8,
							"NORMAL":9
						}
					]
				},
				{
					"attributes":{
						"POSITION":10,
						"NORMAL":11,
						"TEXCOORD_0":12
					},
					"indices":13,
					"material":1,
					"targets":[
						{
							"POSITION":14,
							"NORMAL":15
						},
						{
							"POSITION":16,
							"NORMAL":17
						},
						{
							"POSITION":18,
							"NORMAL":19
						}
					]
				}
			],
			"weights":[
				0,
				0,
				0
			]
		}
	],
	"textures":[
		{
			"sampler":0,
			"source":0
		}
	],
	"images":[
		{
			"mimeType":"image/png",
			"name":"brown_eye",
			"uri":"brown_eye.png"
		}
	],
	"accessors":[
		{
			"bufferView":0,
			"componentType":5126,
			"count":53512,
			"max":[
				5.620800018310547,
				3.742500066757202,
				0.0034000000450760126
			],
			"min":[
				-5.620800018310547,
				-0.9941999912261963,
				-17.193199157714844
			],
			"type":"VEC3"
		},
		{
			"bufferView":1,
			"componentType":5126,
			"count":53512,
			"type":"VEC3"
		},
		{
			"bufferView":2,
			"componentType":5126,
			"count":53512,
			"type":"VEC2"
		},
		{
			"bufferView":3,
			"componentType":5123,
			"count":80268,
			"type":"SCALAR"
		},
		{
			"bufferView":4,
			"componentType":5126,
			"count":53512,
			"max":[
				0,
				0,
				6.728920936584473
			],
			"min":[
				0,
				-5.364418029785156e-07,
				-0.0013306206092238426
			],
			"type":"VEC3"
		},
		{
			"bufferView":5,
			"componentType":5126,
			"count":53512,
			"type":"VEC3"
		},
		{
			"bufferView":6,
			"componentType":5126,
			"count":53512,
			"max":[
				4.618712425231934,
				0,
				0
			],
			"min":[
				-4.618712425231934,
				0,
				0
			],
			"type":"VEC3"
		},
		{
			"bufferView":7,
			"componentType":5126,
			"count":53512,
			"type":"VEC3"
		},
		{
			"bufferView":8,
			"componentType":5126,
			"count":53512,
			"max":[
				3.036698818206787,
				0.5371274948120117,
				9.288814544677734
			],
			"min":[
				-3.036698818206787,
				-2.0219268798828125,
				-0.001836887327954173
			],
			"type":"VEC3"
		},
		{
			"bufferView":9,
			"componentType":5126,
			"count":53512,
			"type":"VEC3"
		},
		{
			"bufferView":10,
			"componentType":5126,
			"count":4080,
			"max":[
				0.44929999113082886,
				1.430299997329712,
				-15.962200164794922
			],
			"min":[
				-0.44929999113082886,
				1.1827000379562378,
				-16.261199951171875
			],
			"type":"VEC3"
		},
		{
			"bufferView":11,
			"componentType":5126,
			"count":4080,
			"type":"VEC3"
		},
		{
			"bufferView":12,
			"componentType":5126,
			"count":4080,
			"type":"VEC2"
		},
		{
			"bufferView":13,
			"componentType":5123,
			"count":6120,
			"type":"SCALAR"
		},
		{
			"bufferView":14,
			"componentType":5126,
			"count":4080,
			"max":[
				0,
				-4.76837158203125e-07,
				6.364163398742676
			],
			"min":[
				0,
				-4.76837158203125e-07,
				6.247143745422363
			],
			"type":"VEC3"
		},
		{
			"bufferView":15,
			"componentType":5126,
			"count":4080,
			"type":"VEC3"
		},
		{
			"bufferView":16,
			"componentType":5126,
			"count":4080,
			"max":[
				0.36919790506362915,
				0,
				0
			],
			"min":[
				-0.36919790506362915,
				0,
				0
			],
			"type":"VEC3"
		},
		{
			"bufferView":17,
			"componentType":5126,
			"count":4080,
			"type":"VEC3"
		},
		{
			"bufferView":18,
			"componentType":5126,
			"count":4080,
			"max":[
				0.2427392452955246,
				-0.6389666795730591,
				8.78529167175293
			],
			"min":[
				-0.2427392452955246,
				-0.7727352380752563,
				8.623753547668457
			],
			"type":"VEC3"
		},
		{
			"bufferView":19,
			"componentType":5126,
			"count":4080,
			"type":"VEC3"
		}
	],
	"bufferViews":[
		{
			"buffer":0,
			"byteLength":642144,
			"byteOffset":0,
			"target":34962
		},
		{
			"buffer":0,
			"byteLength":642144,
			"byteOffset":642144,
			"target":34962
		},
		{
			"buffer":0,
			"byteLength":428096,
			"byteOffset":1284288,
			"target":34962
		},
		{
			"buffer":0,
			"byteLength":160536,
			"byteOffset":1712384,
			"target":34963
		},
		{
			"buffer":0,
			"byteLength":642144,
			"byteOffset":1872920,
			"target":34962
		},
		{
			"buffer":0,
			"byteLength":642144,
			"byteOffset":2515064,
			"target":34962
		},
		{
			"buffer":0,
			"byteLength":642144,
			"byteOffset":3157208,
			"target":34962
		},
		{
			"buffer":0,
			"byteLength":642144,
			"byteOffset":3799352,
			"target":34962
		},
		{
			"buffer":0,
			"byteLength":642144,
			"byteOffset":4441496,
			"target":34962
		},
		{
			"buffer":0,
			"byteLength":642144,
			"byteOffset":5083640,
			"target":34962
		},
		{
			"buffer":0,
			"byteLength":48960,
			"byteOffset":5725784,
			"target":34962
		},
		{
			"buffer":0,
			"byteLength":48960,
			"byteOffset":5774744,
			"target":34962
		},
		{
			"buffer":0,
			"byteLength":32640,
			"byteOffset":5823704,
			"target":34962
		},
		{
			"buffer":0,
			"byteLength":12240,
			"byteOffset":5856344,
			"target":34963
		},
		{
			"buffer":0,
			"byteLength":48960,
			"byteOffset":5868584,
			"target":34962
		},
		{
			"buffer":0,
			"byteLength":48960,
			"byteOffset":5917544,
			"target":34962
		},
		{
			"buffer":0,
			"byteLength":48960,
			"byteOffset":5966504,
			"target":34962
		},
		{
			"buffer":0,
			"byteLength":48960,
			"byteOffset":6015464,
			"target":34962
		},
		{
			"buffer":0,
			"byteLength":48960,
			"byteOffset":6064424,
			"target":34962
		},
		{
			"buffer":0,
			"byteLength":48960,
			"byteOffset":6113384,
			"target":34962
		}
	],
	"samplers":[
		{
			"magFilter":9729,
			"minFilter":9987
		}
	],
	"buffers":[
		{
			"byteLength":6162344,
			"uri":"human.bin"
		}
	]
}
